<svg width="213" height="219" viewBox="0 0 213 219" fill="none" xmlns="http://www.w3.org/2000/svg">
<path d="M115.035 13.0205C113.128 27.8747 101.54 31.8747 93.1543 42.3122C89.4512 46.9111 83.2168 55.9059 86.0345 61.9163C86.1908 62.2549 86.6387 62.2288 86.8783 62.0257C90.4408 59.0361 90.8054 53.609 93.0606 49.5674C96.3523 43.6559 101.055 38.9267 105.68 34.083C111.066 28.4476 117.399 21.4163 115.347 12.9788C115.305 12.7965 115.061 12.8538 115.035 13.0205Z" fill="#3F3F2C"/>
<mask id="mask0_201_177" style="mask-type:luminance" maskUnits="userSpaceOnUse" x="22" y="0" width="97" height="66">
<path d="M22.0085 0H118.009V65.9375H22.0085V0Z" fill="white"/>
</mask>
<g mask="url(#mask0_201_177)">
<path d="M114.503 0.322678C114.331 -0.000238031 113.857 0.218512 113.93 0.557053C116.764 13.13 106.993 24.005 98.4617 31.9268C92.2846 37.6716 87.2221 43.2862 82.3783 50.1039C81.7273 51.0206 80.9617 51.7393 80.1179 52.3331C79.9304 51.5623 79.7637 50.7966 79.5762 50.0362L79.571 50.0206C77.1648 39.6664 75.2742 30.0987 77.2533 18.7446C77.3783 18.0466 76.946 17.2081 76.1335 17.2446C74.9512 17.3123 73.7898 17.3748 72.6231 17.4789C70.5867 17.6091 68.5554 17.8071 66.5137 18.0258C65.8835 18.0935 65.42 18.4737 65.3731 19.1508C64.5346 31.0466 65.8158 43.38 69.5502 54.7914C64.6179 54.8383 59.3471 54.2237 55.2377 54.8748C45.8419 56.3383 32.2064 63.88 22.9981 59.9216C22.5814 59.7602 22.2533 60.281 22.6439 60.5362C32.17 66.9998 45.2689 60.281 55.9044 60.3487C61.2481 60.3904 66.9096 61.6925 72.2273 61.8748C72.6179 62.7394 73.0033 63.5935 73.42 64.4529C74.0137 65.7081 76.0919 65.9998 76.9877 64.9216C77.3158 64.5102 77.6439 64.0987 77.9929 63.6977C78.5242 63.0258 78.7846 62.1144 78.5294 61.3227C81.5867 60.5935 84.3939 59.0414 86.8158 56.0883C90.7273 51.2654 92.9304 45.4529 97.1544 40.755C101.66 35.7758 106.993 31.6143 111.024 26.1768C117.009 18.0987 119.285 9.57789 114.503 0.322678Z" fill="#54543E"/>
</g>
<path d="M189.498 43.2914C179.618 25.9945 146.936 15.5101 126.91 22.7966C113.613 27.656 104.331 38.9685 94.4721 49.1403C92.2689 51.406 90.0398 53.6143 87.7429 55.6768C79.2273 60.3435 69.8783 62.4112 60.2273 64.3018C52.9877 65.7133 45.5762 67.0258 38.2064 69.2393C19.5658 74.8487 5.80018 89.2706 1.52414 108.422C-7.30919 148.088 23.6387 194.666 58.571 209.817C114.243 233.989 177.753 201.854 199.003 166.234C223.66 124.906 209.951 79.0622 189.498 43.2914Z" fill="#D12811"/>
<path d="M186.503 46.2448C176.972 29.5729 145.488 19.4687 126.201 26.4948C110.545 32.2135 100.665 47.2396 88.4668 58.1875C74.1283 66.026 57.3574 66.2604 40.7533 71.2396C34.2949 73.1927 28.4616 76.2291 23.4199 80.1875C14.446 87.2344 8.06578 97.1666 5.42515 108.99C-3.09568 147.208 26.7116 192.062 60.3679 206.677C75.9095 213.432 92.097 215.615 107.738 214.49C146.061 211.714 181.113 189.042 195.649 164.677C219.415 124.87 206.206 80.7083 186.503 46.2448Z" fill="#DB593B"/>
<path d="M136.238 79.5625C122.8 78.1146 97.4096 85.349 93.8471 66.026C92.92 61.026 94.0814 54.9531 94.4721 49.1406C93.5554 50.0781 92.6335 51.0156 91.7064 51.9115C90.3991 53.2083 89.0866 54.4635 87.7429 55.6771C80.8783 59.4375 73.4721 61.5104 65.8106 63.1667C63.9616 63.5573 62.1023 63.9375 60.2273 64.3021C65.7741 66.0208 70.1856 69.3906 69.7377 76.7083C69.696 77.401 70.2637 78.2083 70.9616 78.3438C81.17 80.276 85.3627 91.0938 81.2169 100.141C77.5241 108.193 70.3158 110.828 63.3731 115.255C54.2377 121.073 50.8575 130.193 54.9304 140.495C59.4356 151.865 70.4773 157.573 80.0606 164.068C89.1908 170.25 98.0241 180.229 109.795 180.792C115.868 181.078 119.581 166.786 125.352 165.438C130.951 164.12 141.415 173.266 145.509 168.38C153.795 158.51 144.342 145.891 157.743 134.255C173.436 120.63 163.41 82.5052 136.238 79.5625Z" fill="#DB5F4F"/>
<path d="M112.04 161.094C108.222 161.057 103.805 161.636 100.347 159.693C96.9877 157.802 95.5137 153.985 92.3575 151.875C90.2585 150.485 88.17 150.203 85.7741 149.604C80.0762 148.188 76.7273 145.651 73.4043 140.87C67.6595 132.61 61.9148 121.584 71.8991 114.203C76.3523 110.917 81.7845 107.906 82.1335 101.636C82.4095 96.4585 78.7741 93.797 74.0345 93.1668C65.9929 92.1304 56.1023 92.8491 47.8054 95.2554C46.1075 95.7241 44.4773 96.2866 42.946 96.922C37.1231 99.3127 31.9981 103.49 28.9304 108.625C25.8523 112.417 23.8783 116.688 22.9668 121.146C22.9095 121.339 22.8575 121.552 22.8262 121.755C21.7064 127.839 22.571 134.276 25.4095 140.37C26.2012 142.052 27.0762 143.682 28.0137 145.276C31.4825 152.386 35.9095 158.86 39.3262 163.104C39.3835 163.182 39.446 163.245 39.5085 163.323C47.1491 172.766 56.8002 180.552 67.8523 185.594C71.5137 187.646 75.3366 189.391 79.3002 190.787C85.5762 194.318 92.2689 196.823 99.5085 197.005C109.394 197.219 131.024 194.677 131.644 181.651C132.248 168.693 124.118 161.229 112.04 161.094Z" fill="#AA2A15"/>
<path d="M187.16 85.1514C185.831 82.1045 184.316 78.8441 182.613 75.5264C175.009 60.8962 163.477 45.4691 147.29 43.6983C145.274 43.2139 143.149 43.0576 141.087 43.2347C129.352 44.2556 117.925 52.8389 110.837 61.7868C105.811 68.1149 99.0606 79.7191 106.102 87.0524C113.691 94.9378 133.154 80.5889 136.805 90.2451C137.17 91.1774 137.863 91.8389 138.925 91.8806C146.222 92.1983 152.66 97.3128 154.529 104.485C156.394 111.625 151.91 117.761 149.399 124.078C148.087 127.407 147.081 130.808 147.67 134.396C148.113 137.016 149.41 138.386 150.384 140.782C151.055 142.438 151.326 143.948 151.347 145.401C151.404 148.282 150.472 150.959 149.785 154.131C148.071 162.011 152.607 168.318 160.529 169.782C169.482 171.433 176.613 165.506 180.821 158.094C192.738 137.24 196.779 107.433 187.16 85.1514Z" fill="#AA2A15"/>
<path d="M72.3523 186.828C68.1179 183.688 63.8366 180.604 59.7846 177.214C55.2429 173.411 51.2273 169.125 47.6075 164.51C44.4721 160.896 41.545 157.089 38.8262 153.182C33.1023 144.969 27.9096 135.797 25.0346 126.156C24.4252 124.104 23.7898 121.797 23.3835 119.422C23.2273 119.995 23.0762 120.568 22.9616 121.141C22.9148 121.349 22.8627 121.547 22.8262 121.755C21.7064 127.844 22.571 134.281 25.42 140.37C26.2064 142.052 27.0866 143.682 28.0241 145.276C31.5398 152.495 36.0606 159.089 39.5033 163.328C47.1543 172.76 56.8002 180.552 67.8575 185.589C69.9877 186.792 72.1908 187.854 74.4356 188.833C73.7533 188.156 73.0606 187.484 72.3523 186.828Z" fill="#89170B"/>
<path d="M112.035 161.094C108.217 161.053 103.8 161.636 100.342 159.688C96.9929 157.803 95.5085 153.995 92.3523 151.881C90.2638 150.485 88.1648 150.209 85.769 149.61C80.0815 148.183 76.7325 145.641 73.4096 140.865C67.6648 132.605 61.9096 121.579 71.9044 114.204C76.3575 110.917 81.7742 107.901 82.1179 101.631C82.4044 96.464 78.7742 93.7869 74.0346 93.1723C70.1596 92.6671 65.8523 92.589 61.5033 92.891C65.446 93.7192 68.6804 95.5212 70.045 99.0942C73.4825 108.12 62.6075 112.495 55.3367 117.042C57.571 118.573 59.2377 120.672 59.4825 123.745C59.644 125.787 59.0867 127.756 58.2794 129.683C61.4981 129.964 64.5033 131.454 66.5294 134.625C70.0867 140.188 66.2898 144.131 63.8731 148.688C65.2533 149.209 66.2481 150.323 66.8523 152.037C67.8679 154.928 73.0398 154.157 75.4408 154.917C77.7117 155.641 79.6804 156.985 81.4981 158.485C82.644 159.422 83.5815 160.474 84.545 161.506C83.0085 159.756 85.4096 161.12 87.67 161.563C88.7325 161.355 89.8575 161.537 90.8627 162.303C93.2846 164.157 99.0085 170.875 102.378 169.829C104.295 169.235 105.795 166.417 107.842 165.615C112.415 163.823 115.134 166.61 116.733 170.204C123.483 170.875 127.774 176.214 126.712 184.131C126.253 187.553 125.019 190.287 123.279 192.558C127.962 190.209 131.399 186.73 131.634 181.651C132.243 168.693 124.123 161.224 112.035 161.094Z" fill="#89170B"/>
<path d="M161.545 169.693C147.732 166.443 150.399 150.474 155.154 141C156.212 138.896 160.149 134.24 160.061 131.938C160.003 130.391 157.779 128.307 157.758 126.125C157.727 122.766 159.758 120.609 162.368 119.161C161.623 116.484 161.04 113.823 161.581 111.036C162.159 108.083 164.337 104.979 163.623 101.865C163.092 99.526 160.581 97 159.107 95.1979C153.946 88.8854 145.363 82.4792 143.467 74.1875C136.321 75.7969 127.936 77.625 124.665 71.875C120.149 74.9271 116.842 80.6615 111.165 81.4115C107.852 81.849 104.909 80.2969 103.159 77.7917C102.816 81.1406 103.54 84.3802 106.107 87.0573C113.691 94.9427 133.159 80.5885 136.811 90.2344C137.17 91.1875 137.868 91.8333 138.915 91.8802C146.217 92.2031 152.659 97.3177 154.524 104.495C156.389 111.625 151.909 117.755 149.404 124.083C148.092 127.401 147.076 130.797 147.67 134.385C148.107 137.021 149.409 138.391 150.389 140.786C152.399 145.714 150.805 149.354 149.774 154.125C148.071 162.005 152.607 168.328 160.524 169.786C161.779 170.016 162.998 170.083 164.175 170.031C163.305 169.99 162.425 169.896 161.545 169.693Z" fill="#89170B"/>
<path d="M126.956 50.3025C137.93 48.1462 149.436 48.6306 159.717 53.1098C167.904 56.6671 174.316 63.6723 180.071 70.8806C172.524 57.7869 161.764 45.2869 147.285 43.6983C145.274 43.2192 143.149 43.0577 141.081 43.24C133.873 43.8598 126.79 47.3494 120.748 52.0212C123.238 51.1619 125.54 50.5837 126.956 50.3025Z" fill="#89170B"/>
<path d="M50.8782 76.8545C47.998 76.8388 46.0918 76.8493 44.3782 77.8961C38.4616 78.2399 32.6439 82.1826 28.1699 85.7503C22.1803 90.5263 15.3626 97.0576 17.3574 105.354C17.9876 107.979 21.2012 107.927 22.5814 106.063C27.4668 99.4638 33.4512 93.8805 40.5501 89.7347C45.2012 87.0211 49.946 85.4951 53.2689 81.068C54.571 79.3284 52.8053 76.8649 50.8782 76.8545Z" fill="#E87562"/>
<path d="M133.258 30.9167C126.873 31.0938 121.18 34.1876 116.019 37.8907C113.43 38.573 110.659 41.7084 108.826 43.6719C108.409 44.073 108.008 44.474 107.623 44.8907C104.258 48.0209 99.4512 51.6042 101.227 56.6146C101.654 57.8126 103.17 58.8178 104.404 57.9323C110.316 53.7032 115.337 48.4011 121.196 44.1303C125.842 40.7448 132.113 39.2553 135.003 33.9948C135.717 32.6928 134.842 30.8751 133.258 30.9167Z" fill="#E87562"/>
<path d="M191.191 64.7711C184.639 51.7086 173.998 36.5419 158.727 33.7659C158.014 33.6357 157.316 34.5159 157.956 35.094C168.415 44.5471 178.274 52.8544 185.05 65.5419C192.639 79.7555 196.873 96.068 196.904 112.193C196.936 126.865 193.305 141.417 185.837 154.084C182.383 159.933 178.149 165.297 173.212 169.964C167.508 175.354 160.415 178.318 154.607 183.453C154.18 183.828 154.373 184.703 154.962 184.802C168.508 187.005 181.571 171.073 188.352 160.979C197.467 147.417 202.248 131.229 202.686 114.938C203.149 97.6461 198.93 80.2034 191.191 64.7711Z" fill="#E87562"/>
<path d="M147.425 160.979C144.644 155.968 142.331 146.932 136.524 144.823C136.342 144.755 136.128 144.963 136.191 145.151C138.706 152.333 139.571 159.932 143.524 166.625C144.649 168.526 150.139 177.38 153.54 173.458C156.102 170.5 148.561 163.021 147.425 160.979Z" fill="#E87562"/>
<path d="M141.222 168.531C139.019 164.838 136.644 160.974 133.628 157.89C133.529 157.786 133.378 157.89 133.399 158.015C134.17 162.307 136.055 166.526 137.962 170.432C139.384 173.338 140.467 177.937 144.003 178.521C144.425 178.588 144.732 178.411 144.894 178.015C146.232 174.692 142.873 171.291 141.222 168.531Z" fill="#E87562"/>
<path d="M123.123 112.323C119.649 108.089 116.024 108.787 111.607 107.016C110.686 106.448 109.727 105.927 108.738 105.459C105.863 103.422 103.654 100.516 99.8314 100.204C98.9407 100.136 98.0605 100.73 97.6178 101.464C96.4407 103.427 96.4303 105.464 96.4147 107.714C96.4043 110.209 96.1543 110.063 95.6491 111.802C94.0605 117.313 95.0345 120.105 98.6543 125.198C102.988 131.302 108.842 136 114.654 140.62C118.326 143.537 123.727 150.115 128.811 149.964C129.68 149.938 130.639 149.521 131.04 148.693C131.394 147.974 131.592 147.276 131.68 146.584C131.857 146.443 131.982 146.24 131.93 145.948C131.842 145.495 131.732 145.042 131.639 144.589C131.581 144.224 131.508 143.86 131.409 143.5C130.113 137.407 128.524 131.417 127.566 125.235C126.852 120.641 126.186 116.047 123.123 112.323Z" fill="#E87562"/>
<path d="M85.6231 97.3645C85.3783 97.2187 84.9772 97.1875 84.7429 97.3645C82.9408 98.7343 83.0189 101.823 82.3158 103.838C81.8314 105.229 81.0554 106.406 80.4408 107.729C79.8106 109.094 79.5189 110.526 78.8262 111.875C78.6335 112.25 78.9564 112.844 79.4304 112.667C82.9408 111.349 84.7845 109.578 86.1022 106.057C86.972 103.745 88.2377 98.9687 85.6231 97.3645Z" fill="#E87562"/>
<path d="M115.217 94.7187C114.363 94.1771 113.639 93.4948 112.712 93.0729C111.706 92.6146 110.613 92.3802 109.592 91.9427C108.014 91.2656 105.993 90.0885 104.238 90.2031C103.941 90.2239 103.774 90.4531 103.821 90.7448C104.154 92.8281 106.623 94.4062 108.389 95.1823C110.873 96.2708 112.514 96.5104 115.081 95.6771C115.519 95.5364 115.607 94.9635 115.217 94.7187Z" fill="#E87562"/>
<path d="M32.446 166.396C28.8574 162.041 25.9512 157.468 23.1126 152.625C21.4043 149.713 20.3262 147.823 17.2689 146.349C17.2116 146.323 17.1439 146.364 17.1595 146.432C19.3522 154.937 22.7481 161.635 28.3053 168.672C33.1126 174.76 40.2741 185.244 48.2585 187C48.7012 187.099 49.1283 186.718 49.0085 186.255C46.9981 178.593 37.3991 172.416 32.446 166.396Z" fill="#E87562"/>
<path d="M128.956 203.979C120.029 202.213 111.425 203.984 102.331 204.427C93.6179 204.849 85.6231 203.354 77.1544 201.656C77.0033 201.625 76.821 201.792 76.9304 201.943C81.7585 208.427 89.9096 209.646 97.6387 209.776C108.17 209.948 119.613 209.75 129.102 205.094C129.561 204.87 129.462 204.078 128.956 203.979Z" fill="#E87562"/>
<path d="M87.7428 55.6768C80.8783 59.4372 73.472 61.5101 65.8105 63.1663C71.873 68.9893 79.9251 75.7445 86.3626 72.5257C90.222 70.5934 89.9668 65.4632 90.3158 61.7028C90.6178 58.3643 91.1335 55.1195 91.7064 51.9111C90.3991 53.208 89.0866 54.4632 87.7428 55.6768Z" fill="#919079"/>
<path d="M83.3054 119.552C81.5085 119.229 79.4356 121.458 78.2116 122.552C76.571 124.016 74.1648 125.479 74.3627 127.958C74.3835 128.188 74.5033 128.38 74.7273 128.448C77.1752 129.193 79.0189 127 80.5398 125.396C81.7377 124.141 84.1595 121.667 83.5085 119.755C83.4773 119.667 83.4095 119.568 83.3054 119.552Z" fill="#E87562"/>
<path d="M86.2324 124.989C85.6074 125.521 84.8627 125.703 84.2533 126.323C83.6335 126.953 83.1022 127.687 82.5918 128.411C82.1179 129.078 81.6856 129.776 81.1022 130.354C80.8262 130.635 80.5241 130.88 80.2533 131.161C80.1595 131.156 80.071 131.151 79.9824 131.151C79.6908 131.151 79.4616 131.437 79.5397 131.719C80.0345 133.568 82.2168 132.88 83.1856 131.859C84.0449 130.948 84.7429 129.734 85.3679 128.656C85.7012 128.088 86.0554 127.469 86.2585 126.833C86.4356 126.271 86.3262 125.713 86.5189 125.156C86.5814 124.979 86.3522 124.89 86.2324 124.989Z" fill="#E87562"/>
<path d="M132.175 99.3333C130.165 99.1249 127.92 100.172 126.342 101.349C126.186 101.463 126.206 101.781 126.446 101.76C128.383 101.599 130.524 101.677 132.404 101.203C132.701 101.125 133.024 100.854 133.076 100.536C133.107 100.359 133.118 100.224 133.076 100.042C132.982 99.6041 132.581 99.3801 132.175 99.3333Z" fill="#E87562"/>
<path d="M77.2532 18.7446C75.2741 30.0988 77.1647 39.6665 79.571 50.0207C75.3887 41.3176 72.9407 33.0936 72.7324 23.354C72.7012 21.7603 72.6126 19.7134 72.623 17.4738C73.7897 17.3749 74.9512 17.3124 76.1335 17.2446C76.946 17.203 77.3782 18.0467 77.2532 18.7446Z" fill="#3F3F2C"/>
<path d="M187.16 85.1509C185.831 82.104 184.316 78.8436 182.613 75.5259C181.503 75.2082 180.342 75.0988 179.17 75.1925C177.602 75.3332 176.441 76.7811 176.925 78.3592C176.498 80.6092 176.055 82.8696 175.623 85.104C174.477 85.4217 173.988 86.4842 173.873 87.5519C173.529 91.1978 170.748 92.6821 171.206 96.604C171.446 98.5675 172.899 100.568 173.67 102.307C175.383 106.151 176.514 109.859 177.248 113.927C171.607 115.312 167.472 119.125 166.394 125.427C165.842 128.729 166.488 131.812 166.91 135.047C167.29 137.219 167.602 139.417 167.831 141.599C163.852 143.849 159.852 146.104 155.873 148.349C153.873 147.901 153.04 146.042 151.347 145.401C151.404 148.281 150.472 150.963 149.785 154.13C148.071 162.01 152.607 168.318 160.529 169.781C169.482 171.432 176.613 165.505 180.821 158.094C192.738 137.239 196.779 107.432 187.16 85.1509Z" fill="#282818"/>
<path d="M146.628 58.1147C146.321 56.6876 145.134 55.7137 143.66 55.823C142.816 55.8907 142.029 56.2189 141.191 56.3074C140.66 56.3647 140.134 56.3595 139.613 56.3387C137.951 54.7241 136.217 53.2084 134.649 51.7814C133.899 51.0991 132.639 50.797 131.634 51.1407C130.503 50.9116 129.248 51.1824 128.248 51.9584C126.972 52.948 126.884 54.3595 125.227 54.8126C123.701 55.2345 122.337 55.2918 120.951 56.1824C119.738 56.9637 119.68 58.5678 120.592 59.5782C118.92 60.698 117.868 61.9584 116.852 64.7293C115.509 68.3803 112.337 71.4532 112.248 75.4168C112.222 76.5053 113.134 77.5001 114.154 77.7449C119.602 79.0314 124.269 83.0314 129.894 83.0574C135.238 83.0834 140.842 81.8751 144.295 77.4793C148.894 71.6355 147.644 66.3907 144.389 61.7553C144.498 61.7293 144.602 61.7137 144.712 61.6772C146.123 61.1616 146.941 59.5678 146.628 58.1147Z" fill="#282818"/>
<path d="M47.8054 95.2549C46.1075 95.7236 44.4773 96.2861 42.946 96.9215C37.1231 99.3122 31.9981 103.489 28.9304 108.625C25.8523 112.416 23.8783 116.687 22.9668 121.146C22.9095 121.338 22.8575 121.552 22.8262 121.755C21.7064 127.838 22.571 134.276 25.4095 140.369C26.2012 142.052 27.0762 143.682 28.0137 145.276C31.4825 152.385 35.9095 158.859 39.3262 163.104C39.3731 162.703 39.446 162.192 39.5033 161.494C39.6856 159.26 40.5189 157 41.2325 154.916C41.7064 153.442 42.6387 151.25 43.2793 149.807C43.3731 149.427 43.3523 149.041 43.2377 148.672C41.4877 144.958 43.7273 142.437 49.9564 141.104C51.1648 140.552 51.6595 139.406 51.0293 138.182C47.6127 131.724 43.4877 122.489 46.0502 115.083C47.3835 111.25 49.8523 108.13 50.8679 104.083C52.4148 97.8643 50.5606 97.0049 47.8054 95.2549Z" fill="#282818"/>
<path d="M49.3574 133.849C47.3574 130.583 46.1439 126.849 44.6127 123.354C44.5397 123.182 44.2949 123.255 44.3366 123.438C45.1804 127.438 47.2689 130.646 48.4616 134.422C50.9408 142.261 45.6231 138.979 43.347 142.886C42.222 144.818 43.3783 146.729 43.0293 148.698C42.5189 151.552 40.7377 152.969 40.8574 156.047C40.8783 156.521 41.4877 156.516 41.6283 156.12C42.3106 154.25 44.1074 151.818 44.3731 150.021C44.4929 149.224 44.1387 148.151 44.2741 147.443C45.097 143.078 48.2949 144.099 50.5449 141.266C51.6908 139.823 52.1075 138.729 51.472 136.953C51.1022 135.906 49.946 134.813 49.3574 133.849Z" fill="#919079"/>
<path d="M47.6231 95.5468C36.2741 95.3697 24.4929 107.651 23.3731 118.542C23.3522 118.76 23.597 118.854 23.722 118.672C26.9512 114 29.1752 109.01 33.3887 105.021C37.6752 100.963 43.6387 99.8281 47.7377 95.7916C47.8262 95.6979 47.7429 95.552 47.6231 95.5468Z" fill="#919079"/>
<path d="M146.816 56.9841C146.107 55.4112 144.946 55.7705 143.535 55.307C142.779 55.057 142.425 54.6716 141.581 54.5205C141.238 54.458 140.93 54.8851 140.613 54.8747C138.285 54.7914 137.368 53.5414 136.092 51.8955C136.019 51.807 135.826 51.8278 135.847 51.9737C136.17 53.906 136.764 55.9112 138.805 56.6039C140.498 57.1768 142.014 56.458 143.618 57.4841C144.623 58.1351 144.852 57.8487 144.363 59.3226C144.201 59.807 143.701 60.1872 143.613 60.807C143.472 61.8747 144.238 62.9893 144.566 63.932C145.16 65.6195 145.206 67.3018 146.3 68.7445C146.425 68.9112 146.639 68.8903 146.748 68.7237C147.503 67.6091 147.597 67.1039 147.41 65.7237C147.222 64.3747 145.779 62.2757 145.972 61.0726C146.206 59.6195 147.67 58.8747 146.816 56.9841Z" fill="#919079"/>
<path d="M133.535 80.9848C131.743 81.4848 129.628 81.365 127.785 81.2713C125.785 81.1775 124.857 80.6671 123.384 79.365C122.321 78.4275 120.816 77.1984 119.665 78.6098C119.597 78.6827 119.649 78.8025 119.748 78.8025C122.285 78.8234 122.456 80.9119 123.779 82.2921C124.498 83.0421 125.535 83.464 126.509 83.7713C128.868 84.5057 132.024 84.3859 134.384 83.7296C136.16 83.2296 135.311 80.4848 133.535 80.9848Z" fill="#919079"/>
<path d="M115.378 76.4483C115.123 76.2452 114.738 76.2243 114.503 76.49C114.055 77.0056 113.691 76.1879 113.691 75.8129C113.691 75.365 113.962 75.0525 114.081 74.6358C114.212 74.2035 114.227 73.6306 113.878 73.2816C113.003 72.4222 111.946 73.5993 111.654 74.417C111.196 75.7035 111.368 77.391 112.722 78.0629C113.597 78.4952 114.472 78.2868 115.097 77.6775C115.993 78.1358 116.977 78.5212 117.982 78.4118L118.029 78.2868C117.201 77.5941 116.222 77.1254 115.378 76.4483Z" fill="#919079"/>
<path d="M173.649 101.911C173.545 101.781 173.352 101.87 173.389 102.031C173.717 103.604 174.222 105.12 174.795 106.625C175.3 107.948 176.618 109.984 176.285 111.443C175.795 113.562 173.555 114.318 172.899 116.406C172.831 116.62 173.066 116.776 173.248 116.729C174.904 116.364 176.154 116.984 177.613 115.844C178.607 115.057 179.076 113.963 179.061 112.719C179.024 109.245 175.691 104.479 173.649 101.911Z" fill="#919079"/>
<path d="M189.686 93.5103C189.592 93.3228 189.248 93.4218 189.285 93.6353C192.722 114.104 192.212 138.422 180.894 156.38C180.8 156.526 181.003 156.713 181.139 156.609C184.555 153.958 185.139 150.349 186.508 146.396C188.639 140.245 192.201 134.588 193.352 128.094C195.269 117.312 194.436 103.427 189.686 93.5103Z" fill="#919079"/>
<path d="M163.17 168.579C160.258 169.62 158.587 167.803 156.482 166.058C154.55 164.454 152.258 163.349 151.555 160.719C150.717 157.568 151.988 154.266 150.555 151.245C150.514 151.162 150.373 151.157 150.321 151.224C146.946 155.573 147.686 163.204 151.972 166.594C153.758 168.016 162.821 175.516 163.613 168.99C163.644 168.75 163.441 168.485 163.17 168.579Z" fill="#919079"/>
<path d="M157.071 72.76C154.764 73.0881 152.482 74.3538 151.264 76.3121C150.008 77.5986 149.357 79.5621 149.285 81.3433C149.212 83.0569 151.206 83.7183 152.488 83.0308C155.42 81.4631 157.712 79.0881 159.139 76.0777C159.8 74.6871 158.852 72.51 157.071 72.76Z" fill="#725B37"/>
<path d="M163.394 80.8754C161.337 81.24 159.607 82.7348 158.628 84.5264C157.613 86.3858 159.514 88.6619 161.519 88.0108C161.962 87.8702 162.378 87.6723 162.732 87.391C163.722 86.8806 164.628 85.9066 165.42 85.2452C167.561 83.4587 166.154 80.3858 163.394 80.8754Z" fill="#725B37"/>
<path d="M94.6231 165.359C92.8991 165.786 91.6022 167.14 90.9824 168.776C90.5189 170 90.2741 171.698 90.6595 173.073C90.6908 174.599 91.2897 175.911 92.7324 176.151C96.8679 176.823 97.3731 170.099 97.4981 167.411C97.571 165.88 95.9199 165.047 94.6231 165.359Z" fill="#725B37"/>
<path d="M102.43 168.729C102.29 169.182 102.186 169.646 102.139 170.094C101.972 171.656 102.175 173.224 102.592 174.729C102.915 175.896 104.561 176.286 105.347 175.349C107.128 173.224 107.186 170.359 106.337 167.797C105.545 165.411 101.925 166.469 102.43 168.729Z" fill="#725B37"/>
<path d="M70.795 147.98C69.5137 147.766 67.795 147.849 66.2793 148.318C65.3054 148.308 64.3314 148.485 63.6335 148.787C61.6179 149.641 59.5033 151.745 59.8522 154.125C60.2481 156.818 63.1752 156.985 65.2272 156.162C67.8158 155.131 70.0554 153.433 71.821 151.287C72.7168 150.204 72.3679 148.235 70.795 147.98Z" fill="#725B37"/>
<path d="M151.561 61.1461C151.071 60.693 150.196 60.568 149.639 60.9795C147.977 62.1982 148.17 65.3909 149.993 66.3805C150.805 66.8232 152.029 66.5107 152.415 65.6253C152.826 64.693 152.649 64.0941 152.451 63.1357C152.285 62.3389 152.196 61.7295 151.561 61.1461Z" fill="#282818"/>
<path d="M112.42 60.953C110.399 61.6405 109.118 63.4166 108.201 65.2811C107.8 66.0988 107.347 66.9686 107.113 67.8541C106.837 68.9061 107.175 70.1249 106.514 71.0572C106.326 71.3228 106.436 71.8384 106.847 71.7863C108.535 71.5728 110.217 71.1197 111.248 69.6822C111.79 68.9218 112.061 68.0259 112.472 67.1926C113.029 66.0624 113.743 65.3488 114.675 64.5155C116.331 63.0468 114.368 60.2968 112.42 60.953Z" fill="#282818"/>
<path d="M66.2898 133.428C64.9825 132.016 57.2533 128.912 58.9356 126.579C59.0867 126.375 58.8783 126.073 58.6439 126.224C55.1752 128.422 60.4148 130.896 61.9564 131.792C67.071 134.756 68.4877 139.464 64.8471 144.625C63.7064 146.245 62.6544 147.355 63.1491 149.344C63.2116 149.605 63.6231 149.719 63.7846 149.49C66.4096 145.756 68.8158 142.724 68.0814 138.016C67.8002 136.198 67.5189 134.761 66.2898 133.428Z" fill="#282818"/>
<path d="M64.6179 111.932C62.4148 112.427 60.7794 113.708 58.7117 114.562C57.5658 115.042 56.2117 115.354 55.8263 116.719C55.4773 117.948 56.1648 119.099 56.8106 120.083C58.0398 121.948 58.545 123.812 59.4096 125.828C59.5242 126.104 59.8888 126.167 60.045 125.891C60.6961 124.745 60.7377 123.635 60.4825 122.349C60.3575 121.745 60.1804 121.141 59.9304 120.578C59.6231 119.901 58.8679 119.24 58.6752 118.542C58.2533 117.057 59.0971 117.109 60.2169 116.615C60.8211 116.344 61.42 116.042 62.0033 115.719C63.5138 114.865 64.3679 114.068 65.0294 112.427C65.144 112.141 64.9252 111.865 64.6179 111.932Z" fill="#282818"/>
<path d="M163.206 105.234C161.988 107.114 161.243 108.693 160.998 110.943C160.769 113.052 161.696 114.974 161.561 117.031C161.311 121 155.42 121.818 157.602 126.333C157.769 126.677 158.217 126.599 158.446 126.406C160.863 124.364 163.759 121.286 163.92 117.963C164.019 115.849 163.149 113.792 163.076 111.687C163.003 109.588 163.425 107.417 163.503 105.302C163.514 105.13 163.285 105.109 163.206 105.234Z" fill="#282818"/>
<path d="M159.696 129.933C159.003 131.089 158.779 132.391 158.212 133.615C157.644 134.834 157.066 135.823 156.805 137.162C156.748 137.428 157.003 137.704 157.285 137.605C158.842 137.047 159.592 135.969 160.212 134.469C160.816 133.011 161.274 131.558 160.738 130.026C160.571 129.553 159.951 129.506 159.696 129.933Z" fill="#282818"/>
<path d="M124.186 171.427C123.243 170.438 121.691 170.105 120.436 169.714C118.821 169.203 117.555 168.724 116.352 167.552C115.394 166.615 114.472 165.953 113.113 166.058C112.998 166.068 112.91 166.203 112.982 166.308C113.884 167.558 114.092 169.105 115.107 170.318C116.061 171.453 117.04 172.047 118.43 172.563C119.79 173.068 121.149 173.698 122.524 174.146C123.123 174.339 124.139 174.672 124.665 174.183C125.436 173.453 124.748 172.016 124.186 171.427Z" fill="#282818"/>
<path d="M89.8053 160.687C88.8678 159.646 87.6543 159.885 86.3782 159.635C85.0241 159.37 83.696 159.047 82.3262 158.859C82.0241 158.818 81.748 159.125 81.9355 159.406C82.8574 160.797 84.222 161.614 85.8366 161.995C87.3105 162.338 88.9407 162.656 89.9043 161.245C90.0293 161.068 89.9355 160.828 89.8053 160.687Z" fill="#282818"/>
<path d="M154.602 100.495C150.967 93.2813 144.54 92.3698 137.514 90.2344C137.441 90.2083 137.363 90.2917 137.394 90.3594C139.191 94.4948 145.149 94.4844 148.285 97.3333C155.175 103.594 153.055 112.031 150.998 119.99C150.894 120.406 151.42 120.625 151.696 120.354C156.956 115.26 157.904 107.057 154.602 100.495Z" fill="#282818"/>
<path d="M155.67 79.693C155.555 79.5211 155.331 79.4743 155.154 79.5784C154.8 79.792 154.404 79.8545 154.061 80.1045C153.498 80.5159 153.097 81.0941 152.488 81.4743C151.498 82.0993 150.118 82.2503 149.436 81.0993L149.311 81.1045C148.415 82.9014 150.779 84.1409 152.295 83.8336C153.779 83.5316 156.889 81.5211 155.67 79.693Z" fill="#282818"/>
<path d="M163.686 85.4583C163.024 84.3802 161.722 85.5937 161.092 86.0208C160.727 86.2656 159.019 86.7708 159.144 87.3281C159.722 89.9792 165.118 87.8073 163.686 85.4583Z" fill="#282818"/>
<path d="M106.384 166.255C106.331 166.224 106.238 166.25 106.212 166.313C105.858 167.183 106.066 167.933 106.102 168.86C106.149 169.948 105.993 171.068 105.722 172.125C105.55 172.813 104.576 175.209 106.108 175.11C107.691 175.011 107.837 171.933 107.847 170.823C107.868 169.365 107.785 167.099 106.384 166.255Z" fill="#282818"/>
<path d="M97.5763 169.604C97.2169 169.209 96.8367 169.026 96.3471 169.24C95.4981 169.61 95.4304 170.365 95.2065 171.146C94.9669 171.953 94.519 172.813 93.9513 173.422C93.3783 174.037 92.6127 174.594 92.1283 175.266C92.019 175.422 92.0085 175.672 92.2169 175.766C93.6596 176.401 95.2117 175.339 96.2065 174.38C97.2377 173.396 98.795 170.948 97.5763 169.604Z" fill="#282818"/>
<path d="M66.8054 153.339C65.9356 153.813 65.1075 154.5 64.1596 154.781C63.17 155.068 62.1596 154.912 61.1544 154.958C60.9356 154.964 60.9096 155.229 61.0658 155.339C62.1179 156.068 63.3523 156.042 64.571 156C65.9617 155.953 66.9773 155.766 68.0606 154.839C68.9565 154.073 67.7221 152.844 66.8054 153.339Z" fill="#282818"/>
<path d="M6.7273 121.667C7.35751 114.031 9.8575 106.802 13.1179 99.9219C15.7117 94.4583 18.5763 87.4896 22.4773 82.1823C22.8002 81.5208 23.1179 80.8594 23.42 80.1875C14.446 87.2344 8.06584 97.1667 5.42521 108.99C1.38875 127.083 5.95646 146.661 15.446 163.818C8.83146 150.984 5.52938 136.057 6.7273 121.667Z" fill="#282818"/>
<path d="M96.8314 213.734C79.4616 211.854 63.8001 206.104 49.9824 196.188C49.722 196.094 49.4512 196.01 49.1908 195.917C39.8939 192.479 32.2116 186.635 25.9199 179.391C35.6439 191.443 47.7376 201.193 60.3678 206.677C75.9147 213.432 92.097 215.615 107.738 214.49C104.092 214.38 100.446 214.13 96.8314 213.734Z" fill="#282818"/>
<path d="M168.488 138.276C168.118 137.891 167.639 137.724 167.326 137.307C167.227 137.172 166.956 137.172 166.93 137.375C166.831 138.115 166.014 138.906 165.722 139.625C165.373 140.51 165.186 141.484 165.009 142.417C164.472 145.229 168.399 146.057 169.269 143.406C169.654 142.229 169.748 140.797 169.305 139.615C169.123 139.13 168.837 138.651 168.488 138.276Z" fill="#919079"/>
<path d="M158.081 146.172C157.686 146.396 157.378 146.661 156.936 146.791C156.514 146.911 156.113 147.041 155.701 147.203C155.311 147.354 155.014 147.869 155.316 148.26C156.415 149.677 158.639 149.458 159.842 148.271C161.009 147.125 159.394 145.448 158.081 146.172Z" fill="#919079"/>
</svg>
